<?xml version="1.0" standalone="no"?>
<!DOCTYPE svg PUBLIC "-//W3C//DTD SVG 1.1//EN" "http://www.w3.org/Graphics/SVG/1.1/DTD/svg11.dtd" >
<svg xmlns="http://www.w3.org/2000/svg">
<metadata>Generated by IcoMoon</metadata>
<defs>
<font id="icomoon" horiz-adv-x="512">
<font-face units-per-em="512" ascent="480" descent="-32" />
<missing-glyph horiz-adv-x="512" />
<glyph unicode="&#x20;" horiz-adv-x="256" d="" />
<glyph unicode="&#xe600;" glyph-name="icon_googledrive" horiz-adv-x="514" d="M416.337 480h-320.673c-52.547 0-95.663-43.116-95.663-95.663v-319.327c0-52.548 43.116-95.663 95.663-95.663h320.673c52.548 0 95.663 43.116 95.663 95.663v319.327c1.347 52.548-41.769 95.663-95.663 95.663zM305.853 353.347l84.884-146.863h-98.358l-84.884 146.863h98.358zM107.79 182.231l84.884 146.863 49.852-84.884-84.884-146.863-49.852 84.884zM355.705 97.348h-164.379l49.852 84.884h163.031l-48.505-84.884z" />
<glyph unicode="&#xe601;" glyph-name="dropbox" d="M0 197.776l151.102-98.654 106.147 87.415-152.351 93.659-104.897-82.419zM363.395 80.39l-106.147 87.414-106.147-87.414-44.956 29.971v-33.717l151.103-89.912 151.103 89.912v33.717l-44.956-29.971zM0 363.863l104.897-82.419 152.351 92.41-106.147 87.414-151.102-97.405zM257.249 186.536l106.147-87.415 151.103 97.405-104.897 83.668-152.351-93.659zM257.249 373.853l152.351-93.659 104.898 82.42-152.351 98.653-104.897-87.414z" />
<glyph unicode="&#xe602;" glyph-name="box" d="M273.067 281.488c-37.726 0-70.962-20.66-87.13-52.098-16.168 30.541-49.404 52.098-87.13 52.098-22.456 0-43.116-7.186-59.284-19.762v82.639c0 10.779-8.983 18.863-19.762 18.863s-19.762-8.084-19.762-18.863v0-161.684c0.898-52.997 44.913-96.113 98.807-96.113 37.726 0 70.962 20.659 87.13 52.098 16.168-30.541 49.404-52.098 87.13-52.098 54.793 0 98.807 44.014 98.807 97.909 0.898 52.996-44.014 97.010-98.807 97.010zM98.807 125.193c-32.337 0-59.284 26.049-59.284 58.386s26.947 58.386 59.284 58.386c32.337 0 59.284-26.049 59.284-58.386 0-31.438-26.049-58.386-59.284-58.386zM273.067 125.193c-32.337 0-59.284 26.049-59.284 58.386s26.947 58.386 59.284 58.386c32.337 0 59.284-26.049 59.284-58.386 0.898-31.438-26.049-58.386-59.284-58.386zM505.712 117.109l-51.2 66.47 50.302 66.47c6.288 8.982 4.491 20.66-4.491 26.948s-20.659 4.491-27.846-3.593v0l-44.014-57.488-42.218 58.386c-6.288 8.084-18.863 9.881-26.947 3.593-8.983-6.287-10.779-17.965-4.491-26.947v0l50.302-66.47-50.302-66.47c-6.288-8.983-4.491-20.659 4.491-26.947s20.659-4.491 27.846 3.593v0l44.014 57.488 44.014-57.488c6.288-8.084 18.863-9.88 27.846-3.593 7.186 5.389 8.982 17.965 2.695 26.049v0z" />
<glyph unicode="&#xe603;" glyph-name="clouddrive" d="M390.637 206.933c1.897 23.703-7.585 38.874-28.445 46.459l-7.585 2.844-0.948 10.43c-2.844 36.978-39.822 58.785-76.8 45.511l-7.585-2.845-8.534 9.481c-15.171 16.119-26.548 21.808-48.356 21.808-16.119 0-21.808-0.948-35.082-7.585-12.326-6.637-23.703-21.808-30.34-39.822-0.948-3.792-2.845-8.534-2.845-10.43 0-4.74-2.845-6.637-12.326-8.534-18.963-3.792-33.185-14.222-38.874-29.392-1.897-5.689-2.844-10.429-2.844-18.963 0-28.444 13.274-47.407 36.978-53.097 4.74-0.948 33.185-1.897 123.26-0.948h116.622l5.689 2.844c9.481 4.74 17.067 17.067 18.015 32.237zM39.822 187.971c4.74-0.948 40.77-1.897 42.666 0 0 0 0 2.844-1.897 5.689-3.793 7.585-6.637 19.911-6.637 30.34 0 28.445 17.067 51.2 45.511 60.681 9.482 2.845 11.378 4.74 11.378 7.585 0 3.792 6.637 19.911 12.326 27.496 7.585 11.378 18.015 20.86 30.34 26.548 31.289 16.118 68.267 10.43 91.022-12.326l7.585-8.534 9.481 2.845c4.74 0.948 10.43 1.897 12.326 2.845 4.74 0 4.74 2.844 0.948 14.222-12.326 35.082-43.615 58.785-80.593 58.785-13.274 0-24.652-2.844-35.082-7.585-9.482-4.74-21.808-15.171-27.496-22.755-10.429-13.274-9.482-13.274-14.222-11.378-15.171 5.689-32.237 7.585-46.459 2.844-25.6-7.585-43.615-33.185-44.563-60.681 0-4.74-0.948-8.534-0.948-9.482-0.948-0.948-3.792-1.897-6.637-2.844-16.119-3.793-28.445-14.222-35.081-28.445-3.792-7.585-3.792-9.481-3.792-22.755 0-14.222 0-15.171 3.792-23.704 7.585-14.222 21.808-26.548 36.029-29.392zM42.666 132.978c-13.274 0-23.703-3.793-31.289-12.326s-11.378-18.963-11.378-33.185c0-13.274 3.792-23.704 11.378-31.289 7.585-8.534 17.067-12.326 30.34-12.326 12.326 0 22.756 3.793 30.34 12.326s11.378 18.963 11.378 33.185c0 13.274-3.793 23.704-11.378 31.289-7.585 8.534-17.067 12.326-29.392 12.326zM64.474 62.815c-5.689-6.637-13.274-9.481-22.755-9.481s-16.119 2.844-21.808 9.481c-5.689 6.637-8.534 15.171-8.534 25.6s2.845 18.963 8.534 25.6c5.689 6.637 13.274 9.481 22.756 9.481s17.066-2.844 22.756-9.481c5.689-6.637 8.534-15.171 8.534-26.548-0.948-10.43-3.793-18.963-9.481-24.652zM130.845 108.326c-9.481 0-16.118-3.793-20.859-11.378v0 10.43h-10.43v-61.63h10.43v35.082c0 5.689 1.897 10.43 4.74 14.222s7.585 5.689 12.326 5.689c9.482 0 14.222-6.637 14.222-19.911v-35.082h10.429v37.926c0 8.534-1.897 14.222-5.689 18.963-3.792 3.793-8.534 5.689-15.171 5.689zM195.319 108.326c-8.534 0-15.171-2.844-20.859-9.481-5.689-5.689-8.534-14.222-8.534-23.704 0-10.43 2.845-18.015 7.585-23.704s12.326-8.534 20.859-8.534c9.482 0 16.119 1.897 21.808 5.689v9.481c-5.689-4.74-12.326-6.637-19.911-6.637-6.637 0-11.378 1.897-15.171 5.689s-5.689 9.481-5.689 16.118h44.563v4.74c0 9.481-1.897 16.118-6.637 21.808-2.845 6.637-9.482 8.534-18.015 8.534zM177.304 81.778c0.948 5.689 2.845 9.481 5.689 13.274 3.792 3.793 7.585 4.74 12.326 4.74s8.534-1.897 11.378-4.74c2.845-2.844 3.792-7.585 3.792-13.274h-33.185zM262.637 132.029h-24.652v-86.281h23.704c14.222 0 25.6 3.793 35.082 12.326 8.534 8.534 13.274 18.963 13.274 32.237-0.948 27.497-16.118 41.719-47.407 41.719zM288.237 63.763c-6.637-5.689-15.171-9.481-26.548-9.481h-13.274v68.267h14.222c23.704 0 36.029-11.378 36.029-33.185 0-11.378-3.793-19.911-10.43-25.6zM342.281 104.534c-2.844-2.844-4.74-5.689-6.637-10.43v0 12.326h-10.43v-61.63h10.43v31.289c0 6.637 1.897 12.326 4.74 16.118s6.637 5.689 10.43 5.689c3.793 0 5.689-0.948 7.585-1.897v10.43c-0.948 0.948-3.793 0.948-5.689 0.948-4.74 0.948-7.585 0-10.43-2.844zM373.57 135.822c-1.897 0-3.793-0.948-4.74-1.897s-1.897-2.844-1.897-4.74c0-1.897 0.948-3.793 1.897-4.74s2.844-1.897 4.74-1.897c1.897 0 3.793 0.948 4.74 1.897s1.897 2.844 1.897 4.74c0 1.897-0.948 3.793-1.897 4.74s-2.844 1.897-4.74 1.897zM368.829 45.748h10.43v61.63h-10.43v-61.63zM421.926 61.866c-0.948-2.844-1.897-5.689-1.897-8.534v0c0 2.844-0.948 5.689-1.897 8.534l-16.118 44.563h-11.378l23.704-61.63h9.481l24.652 61.63h-10.43l-16.118-44.563zM510.103 78.933c0 9.481-1.897 16.118-6.637 21.808-4.74 4.74-10.43 7.585-18.963 7.585s-15.171-2.844-20.86-9.481c-5.689-5.689-8.534-14.222-8.534-23.704 0-10.43 2.844-18.015 7.585-23.704s12.326-8.534 20.86-8.534c9.481 0 16.118 1.897 21.808 5.689v9.481c-5.689-4.74-12.326-6.637-19.911-6.637-6.637 0-11.378 1.897-15.171 5.689s-5.689 9.481-5.689 16.118h44.563v5.689zM465.541 81.778c0.948 5.689 2.844 9.481 5.689 13.274 3.793 3.793 7.585 4.74 12.326 4.74s8.534-1.897 11.378-4.74c2.844-2.844 3.793-7.585 3.793-13.274h-33.185z" />
<glyph unicode="&#xe604;" glyph-name="paging_down" d="M514.327 345.018l-25.6 25.6c-2.327 2.327-6.982 4.654-11.637 4.654s-9.309-2.327-11.637-4.654l-204.8-204.8-204.8 204.8c-4.654 2.327-6.982 4.654-11.636 4.654s-9.309-2.327-11.636-4.654l-27.927-25.6c-2.328-4.655-4.654-6.982-4.654-11.637s2.328-9.309 4.654-11.636l242.036-242.037c2.327-2.327 6.982-4.654 11.636-4.654s9.309 2.327 11.637 4.654l244.363 239.709c2.327 2.327 4.654 6.982 4.654 11.637 0 6.982-2.327 9.309-4.654 13.964z" />
<glyph unicode="&#xe605;" glyph-name="paging_up" d="M514.327 128.582l-242.036 242.036c-2.327 2.327-6.982 4.654-11.637 4.654s-9.309-2.327-11.637-4.654l-244.363-242.036c-2.328-2.327-4.654-6.982-4.654-11.637s2.328-9.309 4.654-11.637l27.927-27.928c2.328-2.327 6.982-4.654 11.636-4.654s9.309 2.327 11.636 4.654l204.8 204.8 204.8-204.8c2.327-2.327 6.982-4.654 11.637-4.654s9.309 2.327 11.637 4.654l25.6 25.6c2.327 2.327 4.654 6.982 4.654 11.637 0 6.982-2.327 9.309-4.654 13.964z" />
<glyph unicode="&#xe606;" glyph-name="rotate_ccw" d="M435.2 406.4c-22.4 22.4-48 41.6-80 54.4-28.8 12.8-60.8 19.2-92.8 19.2s-60.8-6.4-92.8-19.2-54.4-28.8-76.8-51.2l-41.6 41.6c-6.4 9.6-16 9.6-22.4 6.4-9.6-3.2-12.8-9.6-12.8-19.2v-147.2c0-6.4 3.2-9.6 6.4-16 3.2-3.2 9.6-3.2 12.8-3.2h144c9.6 0 16 3.2 19.2 12.8s3.2 16-3.2 22.4l-44.8 44.8c16 12.8 32 25.6 51.2 32s38.4 12.8 60.8 12.8c22.4 0 44.8-3.2 64-12.8s38.4-19.2 51.2-35.2c16-16 25.6-32 35.2-54.4 9.6-19.2 12.8-41.6 12.8-64s-3.2-44.8-12.8-64c-9.6-19.2-19.2-38.4-35.2-54.4s-32-25.6-51.2-35.2c-19.2-9.6-41.6-12.8-64-12.8-25.6 0-48 6.4-73.6 16-22.4 12.8-41.6 28.8-57.6 48 0 3.2-3.2 3.2-6.4 3.2s-6.4 0-9.6-3.2l-44.8-44.8c-3.2-3.2-3.2-3.2-3.2-6.4s0-6.4 3.2-6.4c22.4-28.8 51.2-51.2 83.2-67.2s67.2-22.4 105.6-22.4c32 0 64 6.4 96 19.2 28.8 12.8 57.6 32 80 54.4s38.4 48 51.2 80c12.8 32 19.2 64 19.2 96 0 35.2-6.4 67.2-19.2 96-9.6 32-28.8 57.6-51.2 80z" />
<glyph unicode="&#xe607;" glyph-name="rotate_cw" d="M492.308 457.026c-9.846 3.282-16.411 3.282-22.974-3.282l-42.666-42.666c-22.974 22.974-49.231 39.385-82.052 52.513-29.538 9.846-59.077 16.411-91.897 16.411s-65.641-6.564-98.462-19.692c-29.538-13.128-59.077-32.82-82.052-55.795-19.692-22.974-39.385-49.231-52.513-82.051s-19.692-65.641-19.692-98.462c0-36.103 6.564-68.923 19.692-98.462 13.128-32.82 32.821-59.077 52.513-82.052 22.975-22.974 49.231-42.666 82.052-55.795 29.538-13.128 62.359-19.693 98.462-19.693 39.385 0 72.205 6.564 108.308 22.974 32.82 16.411 62.359 39.385 85.334 68.923 3.282 3.282 3.282 3.282 3.282 6.564s0 6.564-3.282 6.564l-45.949 45.949c-3.282 3.282-6.564 3.282-9.846 3.282s-6.564-3.282-6.564-3.282c-16.411-19.692-36.103-36.103-59.077-49.231s-49.231-16.411-75.487-16.411c-22.975 0-45.948 3.282-65.641 13.128s-39.385 19.692-52.513 36.103c-16.41 16.411-26.257 32.82-36.102 55.795-6.564 19.692-9.846 39.385-9.846 65.641 0 22.975 3.282 45.949 13.128 65.641 6.564 19.692 19.692 39.385 36.103 52.513 16.411 16.41 32.821 26.256 52.513 36.102s42.667 13.128 65.641 13.128c42.666 0 82.051-16.411 114.872-45.949l-45.949-45.948c-6.564-3.282-6.564-13.128-3.282-19.692 3.282-9.846 9.846-13.128 19.692-13.128h147.692c6.564 0 9.846 3.282 16.411 6.564 3.282 3.282 6.564 9.846 6.564 16.41v147.692c-3.282 9.846-6.564 16.411-16.411 19.692z" />
<glyph unicode="&#xe608;" glyph-name="search_down" d="M498.036 326.4l-51.2 51.2c-4.654 4.654-9.309 9.309-13.964 9.309s-9.309 0-13.964-4.654l-167.564-167.563-167.564 167.563c-4.654 4.655-9.309 4.655-13.963 4.655s-9.309-4.655-13.963-9.309l-51.2-51.2c-4.654-4.655-4.654-9.309-4.654-13.964s0-9.309 4.654-13.964l232.728-232.728c4.655-4.654 9.309-4.654 13.964-4.654s9.309 0 13.964 4.654l232.728 232.727c4.654 4.655 4.654 9.309 4.654 13.964s0 9.309-4.654 13.963z" />
<glyph unicode="&#xe609;" glyph-name="search_up" d="M498.036 149.527l-232.728 232.728c-4.654 4.654-9.309 4.654-13.964 4.654s-9.309 0-13.964-4.654l-232.727-232.728c-4.654-4.654-4.654-9.309-4.654-13.964s0-9.309 4.654-13.964l51.2-51.2c4.654-4.654 9.309-4.654 13.963-4.654s9.309 0 13.963 4.654l167.564 167.564 167.564-167.564c4.654-4.654 9.309-4.654 13.964-4.654s9.309 0 13.964 4.654l51.2 51.2c4.654 4.654 4.654 9.309 4.654 13.964s0 9.309-4.654 13.964z" />
<glyph unicode="&#xe60a;" glyph-name="firstpage" d="M488.369 90.092l-228.431 228.431c-3.939 3.938-7.877 7.877-11.815 7.877s-11.815 0-15.754-3.938l-228.431-228.431c-3.938-3.938-3.938-7.877-3.938-15.754 0-3.938 0-11.815 3.938-15.754l51.2-51.2c3.938-3.938 7.877-3.938 15.754-3.938 3.939 0 11.816 0 15.754 3.938l161.477 161.477 161.477-161.477c3.938-3.938 7.877-3.938 15.754-3.938 3.938 0 11.815 0 15.754 3.938l51.2 51.2c0 3.938 0 7.877 0 15.754 0 3.938 0 7.877-3.938 11.815zM452.923 381.538c23.631 0 39.385 15.754 39.385 39.385s-15.754 39.385-39.385 39.385h-413.538c-23.631 0-39.385-15.754-39.385-39.385s15.754-39.385 39.385-39.385h413.538z" />
<glyph unicode="&#xe60b;" glyph-name="lastpage" d="M232.369 149.169c3.939-3.938 7.877-3.938 15.754-3.938 3.939 0 11.815 0 15.754 3.938l228.431 228.431c0 3.938 0 7.877 0 11.815s0 11.815-3.938 15.754l-51.2 51.2c-3.938 3.938-7.877 3.938-15.754 3.938-3.938 0-11.815 0-15.754-3.938l-157.538-165.416-165.416 165.416c-3.939 3.938-7.877 3.938-15.754 3.938-3.938 0-11.816 0-15.754-3.938l-47.261-51.2c-3.938-3.939-3.938-7.877-3.938-15.754 0-3.939 0-11.815 3.938-15.754l228.431-224.493zM452.923 86.154h-413.538c-23.631 0-39.385-15.754-39.385-39.385s15.754-39.385 39.385-39.385h413.538c23.631 0 39.385 15.754 39.385 39.385s-15.754 39.385-39.385 39.385z" />
<glyph unicode="&#xe60c;" glyph-name="popup_close" d="M512 445.866l-34.134 34.134-221.867-218.453-218.453 218.453-37.547-40.96 218.453-215.040-218.453-215.040 37.547-40.96 218.453 218.454 221.867-218.453 34.134 34.134-218.453 221.867z" />
<glyph unicode="&#xe60d;" glyph-name="search_close_hover" d="M256 480c-140.126 0-256-115.874-256-256s115.874-256 256-256 256 115.874 256 256-115.874 256-256 256zM377.263 129.684l-18.863-18.863-97.010 94.316-107.79-102.4-18.863 18.863 107.79 102.4-107.79 102.4 18.863 18.863 107.79-102.4 97.010 94.316 18.863-18.863-97.010-94.316 97.010-94.316z" />
<glyph unicode="&#xe60e;" glyph-name="search" d="M393.6 140.8c25.6 35.2 38.4 76.8 38.4 121.6 0 28.8-6.4 57.6-16 83.2-12.8 25.6-25.6 51.2-44.8 70.4s-41.6 35.2-70.4 44.8c-25.6 12.8-54.4 19.2-83.2 19.2-32 0-57.6-6.4-86.4-16-25.6-12.8-48-28.8-67.2-48s-35.2-41.6-48-70.4c-9.6-22.4-16-48-16-76.8v-12.8c0-25.6 6.4-51.2 16-76.8 12.8-25.6 28.8-51.2 48-70.4s41.6-35.2 70.4-44.8c25.6-12.8 54.4-16 83.2-16 44.8 0 86.4 12.8 121.6 38.4l105.6-105.6c6.4-6.4 16-9.6 25.6-12.8h3.2c9.6 0 19.2 3.2 25.6 12.8 6.4 6.4 12.8 16 12.8 28.8 0 9.6-3.2 19.2-12.8 28.8l-105.6 102.4zM313.6 166.4c-25.6-25.6-60.8-41.6-96-41.6-38.4 0-70.4 12.8-96 41.6-28.8 25.6-41.6 57.6-41.6 96s12.8 70.4 41.6 96c25.6 25.6 60.8 41.6 96 41.6 38.4 0 70.4-12.8 96-41.6 25.6-25.6 41.6-60.8 41.6-96 0-38.4-16-70.4-41.6-96z" />
<glyph unicode="&#xe60f;" glyph-name="attach" d="M451.764 145.694l-195.764 189.741c-15.059 15.059-30.118 21.082-51.2 21.082-18.071 0-33.13-6.024-45.177-18.071s-18.071-27.106-18.071-45.176c0-18.070 6.024-36.141 21.083-48.188l138.541-132.517c3.012-3.012 6.024-3.012 6.024-3.012 3.012 0 9.036 3.012 15.059 9.036s9.036 12.047 9.036 15.059 0 6.024-3.012 6.024l-135.53 135.53c-6.024 6.024-9.036 12.047-9.036 18.070s3.012 12.047 6.024 15.059c3.012 3.012 9.036 6.024 15.059 6.024 9.036 0 15.059-3.012 21.083-6.024l195.764-189.741c15.059-15.059 21.082-30.118 21.082-48.188 0-15.059-6.024-24.094-15.059-36.141-9.036-9.036-21.082-15.059-36.141-15.059-18.070 0-33.13 6.024-48.188 21.082l-259.012 256c-18.070 15.059-27.106 36.141-27.106 60.236s9.036 42.165 24.094 60.236c15.059 15.059 36.141 24.094 60.236 24.094s42.165-9.036 60.236-24.094l204.8-198.776c3.012-3.012 6.024-3.012 9.036-3.012s9.036 3.012 15.059 9.036c6.024 6.024 9.036 12.047 9.036 15.059s0 6.024-3.012 6.024l-201.788 198.777c-27.106 24.094-57.224 36.141-90.353 36.141-36.141 0-66.259-12.047-90.353-36.141-27.106-24.094-39.153-54.212-39.153-90.353 0-33.13 12.047-63.247 39.153-87.341l262.024-252.988c21.082-21.082 48.188-33.13 78.306-33.13 27.106 0 48.188 9.036 66.259 27.106s27.106 39.153 27.106 63.247c-3.012 30.118-15.059 54.212-36.141 75.294z" />
<glyph unicode="&#xe610;" glyph-name="comment_tool" d="M478.87 359.529c-24.094 27.106-54.212 51.2-93.365 66.259s-81.317 24.094-129.506 24.094c-33.13 0-66.259-6.024-99.388-15.059-30.118-9.036-60.236-24.094-81.317-39.153s-39.153-36.141-54.212-57.224c-12.047-24.094-21.082-48.188-21.082-72.283 0-27.106 9.036-54.212 27.106-81.317 18.070-24.094 42.165-45.176 69.27-63.247-3.012-9.036-6.023-15.059-6.023-21.082-3.012-6.024-6.023-12.047-6.023-15.059-3.012-3.012-6.023-9.036-9.035-15.059s-6.023-9.036-9.035-12.047c-3.012 0-6.023-6.024-12.047-9.036-6.023-6.024-6.023-9.036-9.035-9.036 0 0 0 0-3.012-3.012l-3.012-3.012c0 0 0 0-3.012-3.012v-3.012c0 0 0 0 0-3.012s0-3.012 0-3.012v0c0-3.012 3.012-6.024 6.023-9.036s6.023-3.012 9.035-3.012c12.047 3.012 24.094 3.012 33.129 6.024 51.2 12.047 93.365 36.141 132.518 69.271 12.047 0 27.106-3.012 39.153-3.012 45.176 0 90.353 9.036 129.506 24.094s69.27 39.153 93.365 66.259c24.094 27.106 33.13 57.224 33.13 90.353 0 36.141-9.036 66.259-33.13 96.377z" />
<glyph unicode="&#xe611;" glyph-name="download" d="M464 288c-9.6 9.6-19.2 12.8-28.8 12.8-12.8 0-22.4-3.2-28.8-12.8l-92.8-96v230.4c0 12.8-3.2 22.4-12.8 28.8-9.6 9.6-19.2 12.8-28.8 12.8h-41.6c-9.6 0-19.2-3.2-28.8-12.8-9.6-6.4-12.8-16-12.8-28.8v-230.4l-92.8 96c-9.6 9.6-19.2 12.8-32 12.8-9.6 0-22.4-3.2-28.8-12.8l-22.4-22.4c-9.6-9.6-12.8-19.2-12.8-32v0c0-12.8 3.2-22.4 12.8-28.8l208-211.2c6.4-9.6 16-12.8 28.8-12.8 9.6 0 22.4 3.2 28.8 12.8l208 211.2c6.4 9.6 12.8 19.2 12.8 28.8 0 12.8-3.2 22.4-12.8 28.8l-22.4 25.6z" />
<glyph unicode="&#xe612;" glyph-name="fullscreen" horiz-adv-x="516" d="M492.433 480h-146.751c-9.784 0-16.305-3.261-19.567-13.044s-3.261-16.306 3.261-22.828l42.395-45.656-120.662-120.663-117.401 117.402 45.656 48.917c6.523 6.522 9.784 13.045 3.261 22.828 0 9.784-6.523 13.045-16.305 13.045h-146.751c-3.261 0-9.784-3.261-13.044-6.522s-6.522-9.784-6.522-13.045v-153.274c0-9.784 3.261-16.305 13.044-19.567 3.261 0 6.523-3.261 6.523-3.261 6.523 0 9.784 3.261 16.305 6.522l45.656 48.917 117.401-117.401-117.401-117.401-45.656 48.917c-6.523 6.522-13.044 9.784-22.828 3.261-9.784-3.261-13.044-9.784-13.044-16.305v-153.274c0-6.522 3.261-9.784 6.522-13.044s9.784-6.523 16.305-6.523h146.751c9.784 0 16.305 3.261 19.567 13.044s3.261 16.305-3.261 22.828l-45.656 48.917 117.401 117.401 117.401-117.401-45.656-48.917c-6.522-6.522-9.784-13.044-3.261-22.828 3.261-9.784 9.784-13.044 19.567-13.044h146.751c6.522 0 9.784 3.261 16.305 6.522 3.261 3.261 6.522 9.784 6.522 16.305v150.012c0 9.784-3.261 16.305-13.044 19.567s-16.305 3.261-22.828-3.261l-45.656-48.917-123.923 110.879 120.662 123.923 45.656-48.917c3.261-3.261 9.784-6.522 16.305-6.522 3.261 0 6.522 0 9.784 3.261 9.784 3.261 13.044 9.784 13.044 19.567v146.751c0 6.522-3.261 9.784-6.522 16.305-6.522 3.261-13.045 6.522-16.305 6.522z" />
<glyph unicode="&#xe613;" glyph-name="grid" horiz-adv-x="509" d="M0-32h213.333v206.769h-213.333v-206.769zM0 273.231h213.333v206.769h-213.333v-206.769zM295.385 480v-206.769h213.333v206.769h-213.333zM295.385-32h213.333v206.769h-213.333v-206.769z" />
<glyph unicode="&#xe614;" glyph-name="hand" d="M436.706 401.694c-18.070 0-30.118-12.047-30.118-30.118v-126.494c0-6.024-6.024-9.036-9.036-9.036-6.024 0-9.036 3.012-9.036 9.036v186.73c0 15.059-15.059 30.118-30.118 30.118-18.070 0-30.118-12.047-30.118-30.118v-168.659c0-6.024-6.024-9.036-9.036-9.036-6.024 0-9.036 3.012-9.036 9.036v186.73c0 15.059-15.059 30.117-30.118 30.117s-30.118-12.047-30.118-30.117v-186.73c0-6.024-6.024-9.036-9.036-9.036s-21.083 3.012-21.083 9.036v147.577c0 15.059-15.059 30.118-30.118 30.118-18.071 0-30.118-12.047-30.118-30.118v-246.964l-42.165 57.224c-15.059 18.071-39.153 24.094-54.212 12.047-18.070-9.036-24.094-33.129-12.047-51.2 0 0 66.259-96.376 96.377-138.541s75.294-75.294 162.635-75.294c144.565 0 156.612 105.412 156.612 138.541s0 265.036 0 265.036c0 15.059-15.059 30.118-30.118 30.118z" />
<glyph unicode="&#xe615;" glyph-name="highlight_tool" d="M139.378 229.689l-14.222-56.889-25.6-48.356 99.555-79.644 42.666 31.289 59.733 8.534 11.378 11.378-162.133 145.066-11.378-11.378zM0 10.666h164.978l17.066 17.067-96.711 71.111-85.334-88.178zM352.711 437.334l-184.889-179.2 159.289-147.911 184.889 179.2-159.289 147.911z" />
<glyph unicode="&#xe616;" glyph-name="info" d="M477.866 353.707c-23.894 37.547-54.613 71.68-92.16 92.16-40.96 23.894-81.92 34.134-129.707 34.134s-88.746-10.24-129.707-34.134c-37.547-23.893-68.266-54.613-92.16-92.16-23.893-40.96-34.133-81.92-34.133-129.707s10.24-88.746 34.133-129.707c23.894-37.546 54.614-71.68 92.16-92.16 40.96-23.894 81.92-34.134 129.707-34.134s88.746 10.24 129.707 34.134c40.96 23.894 71.68 54.613 92.16 92.16 23.894 37.546 34.134 81.92 34.134 129.707s-10.24 88.746-34.134 129.707zM211.626 415.147c0 3.413 0 6.827 3.413 6.827s3.413 3.413 6.827 3.413h64.854c3.413 0 6.827 0 6.827-3.413s3.413-3.413 3.413-6.827v-54.613c0-3.413 0-6.827-3.413-6.827-3.413-3.413-3.413-3.413-6.827-3.413h-61.44c-3.413 0-6.827 0-6.827 3.413-3.413 3.413-6.827 6.827-6.827 10.24v51.2zM341.334 63.574c0-3.413 0-6.827-3.413-6.827-3.413-3.413-3.413-3.413-6.827-3.413h-150.186c-3.413 0-6.827 0-6.827 3.413-3.413 0-3.413 3.413-3.413 6.827v54.613c0 3.413 0 6.827 3.413 6.827 3.413 3.413 3.413 3.413 6.827 3.413h30.72v105.814h-30.72c-3.413 0-6.827 0-6.827 3.413s-3.413 3.413-3.413 6.827v54.614c0 3.413 0 6.827 3.413 6.827s3.413 3.413 6.827 3.413h105.814c3.413 0 6.827 0 6.827-3.413s3.413-3.413 3.413-6.827v-170.667h30.72c3.413 0 6.827 0 6.827-3.413 3.413-3.413 3.413-3.413 3.413-6.827v-54.613h3.413z" />
<glyph unicode="&#xe617;" glyph-name="lighting" d="M256-10.084c-27.773 0-54.412 4.723-79.161 13.414l34.007 30.985c14.925-3.589 30.607-5.479 46.666-5.479 112.98 0 204.611 92.387 204.611 206.5 0 68.959-33.44 129.984-85.019 167.581l11.336 37.219c66.503-43.454 110.335-119.215 110.335-205.178 0-135.274-108.635-245.042-242.775-245.042zM419.613 260.086l-299.454-292.086 81.24 218.97h-107.879l292.274 290.952-74.25-218.025h108.068zM257.512 442.025c-112.98 0-204.611-92.386-204.611-206.5 0-70.093 34.574-131.873 87.286-169.281l-13.981-38.353c-67.826 43.454-112.98 119.971-112.98 207.067 0 135.274 108.635 245.042 242.775 245.042 32.685 0 63.858-6.612 92.198-18.326l-30.985-28.718c-18.893 5.857-38.92 9.069-59.702 9.069z" />
<glyph unicode="&#xe618;" glyph-name="line_tool" d="M30.117-35.012h460.8v30.118h-460.8v-30.118zM478.87 341.459c6.024 6.024 12.047 15.059 12.047 27.106 0 9.036-3.012 21.082-12.047 27.106l-72.283 72.282c-6.024 9.036-15.059 12.047-27.106 12.047s-21.082-3.012-27.106-12.047l-51.2-48.188 126.494-126.494 51.2 48.188zM409.6 272.188l-126.494 126.494-252.988-249.976v-126.494h126.494l252.988 249.976zM123.483 181.836l162.635 162.635c0 0 3.012 3.012 6.024 3.012s6.024-3.012 6.024-6.024 0-3.012-3.012-6.024l-162.636-162.636c0 0-3.012-3.012-6.023-3.012s-6.023 3.012-6.023 6.024 3.012 3.012 3.012 6.024zM108.424 61.365v39.153h-39.153v33.13l27.106 27.106 72.282-72.283-27.106-27.106c0 0-33.13 0-33.13 0z" />
<glyph unicode="&#xe619;" glyph-name="list" d="M64 311.040h-53.76c-2.56 0-5.12 0-7.68-2.56 0-2.56-2.56-5.12-2.56-7.68v-53.76c0-2.56 0-5.12 2.56-5.12 2.56-2.56 5.12-2.56 7.68-2.56h53.76c2.56 0 5.12 0 7.68 2.56 0 2.56 2.56 2.56 2.56 5.12v53.76c0 2.56 0 5.12-2.56 5.12-2.56 2.56-5.12 5.12-7.68 5.12zM64 203.52h-53.76c-2.56 0-5.12 0-7.68-2.56 0-2.56-2.56-5.12-2.56-7.68v-53.76c0-2.56 0-5.12 2.56-5.12 2.56-2.56 5.12-2.56 7.68-2.56h53.76c2.56 0 5.12 0 7.68 2.56s2.56 5.12 2.56 5.12v53.76c0 2.56 0 5.12-2.56 5.12-2.56 5.12-5.12 5.12-7.68 5.12zM64 416h-53.76c-2.56 0-5.12 0-7.68-2.56 0 0-2.56-2.56-2.56-5.12v-53.76c0-2.56 0-5.12 2.56-5.12 2.56-2.56 5.12-2.56 7.68-2.56h53.76c2.56 0 5.12 0 7.68 2.56 0 0 2.56 2.56 2.56 5.12v53.76c0 2.56 0 5.12-2.56 5.12-2.56 2.56-5.12 2.56-7.68 2.56zM64 96h-53.76c-2.56 0-5.12 0-7.68-2.56s-2.56-5.12-2.56-5.12v-53.76c0-2.56 0-5.12 2.56-5.12 2.56-2.56 5.12-2.56 7.68-2.56h53.76c2.56 0 5.12 0 7.68 2.56s2.56 5.12 2.56 5.12v53.76c0 2.56 0 5.12-2.56 5.12-2.56 2.56-5.12 2.56-7.68 2.56zM501.76 96h-384c-2.56 0-5.12 0-7.68-2.56s-2.56-5.12-2.56-5.12v-53.76c0-2.56 0-5.12 2.56-5.12 2.56-2.56 5.12-2.56 7.68-2.56h384c2.56 0 5.12 0 7.68 2.56s2.56 5.12 2.56 5.12v53.76c0 2.56 0 5.12-2.56 5.12-2.56 2.56-5.12 2.56-7.68 2.56zM509.44 413.44c-2.56 2.56-5.12 2.56-7.68 2.56h-384c-2.56 0-5.12 0-7.68-2.56 0 0 0-2.56 0-5.12v-53.76c0-2.56 0-5.12 2.56-5.12 2.56-2.56 5.12-5.12 7.68-5.12h384c2.56 0 5.12 0 7.68 2.56s2.56 5.12 2.56 5.12v56.32c-2.56 2.56-2.56 5.12-5.12 5.12zM501.76 203.52h-384c-2.56 0-5.12 0-7.68-2.56 0-2.56 0-5.12 0-7.68v-53.76c0-2.56 0-5.12 2.56-5.12 2.56-2.56 5.12-2.56 7.68-2.56h384c2.56 0 5.12 0 7.68 2.56s2.56 5.12 2.56 5.12v53.76c0 2.56 0 5.12-2.56 5.12-5.12 5.12-7.68 5.12-10.24 5.12zM501.76 311.040h-384c-2.56 0-5.12 0-7.68-2.56 0-2.56 0-5.12 0-7.68v-53.76c0-2.56 0-5.12 2.56-5.12 2.56-2.56 5.12-2.56 7.68-2.56h384c2.56 0 5.12 0 7.68 2.56s2.56 5.12 2.56 5.12v53.76c0 2.56 0 5.12-2.56 5.12-5.12 2.56-7.68 5.12-10.24 5.12z" />
<glyph unicode="&#xe61a;" glyph-name="more" d="M256 278.857c-31.085 0-54.857-25.6-54.857-54.857s23.772-54.857 54.857-54.857 54.857 25.6 54.857 54.857-23.772 54.857-54.857 54.857zM457.143 278.857c-31.086 0-54.857-25.6-54.857-54.857s23.772-54.857 54.857-54.857 54.857 25.6 54.857 54.857v0c0 29.257-23.772 54.857-54.857 54.857zM54.857 278.857c-31.085 0-54.857-25.6-54.857-54.857s23.771-54.857 54.857-54.857 54.857 25.6 54.857 54.857-23.772 54.857-54.857 54.857z" />
<glyph unicode="&#xe61b;" glyph-name="pencil_tool" horiz-adv-x="516" d="M0 109.474v-141.474h141.474l282.947 282.947-141.474 138.106-282.947-279.579zM124.632 11.789h-37.052v43.789h-43.789v37.053l30.316 30.316 80.842-80.842-30.316-30.316zM293.053 331.789c3.368 0 6.737-3.368 6.737-6.737s0-3.369-3.368-6.737l-181.894-181.894c0 0-3.368-3.368-6.737-3.368s-6.737 3.368-6.737 6.737 0 3.368 3.368 6.737l181.894 181.894c3.368 3.368 3.368 3.368 6.737 3.368zM501.894 389.053l-80.842 80.842c-6.737 6.737-16.842 10.106-30.316 10.106s-23.579-3.368-30.316-13.474l-57.263-53.894 141.474-141.474 57.263 57.263c6.737 6.737 13.474 16.842 13.474 30.316 0 10.106-6.737 20.21-13.474 30.316z" />
<glyph unicode="&#xe61c;" glyph-name="print" d="M445.741 269.177h-18.070v78.306c0 9.036-3.012 18.070-6.024 27.106s-9.036 18.070-15.059 24.094l-45.176 48.188c-6.024 6.024-12.047 12.047-24.094 15.059-9.036 0-18.070 3.012-27.106 3.012h-201.788c-9.035 0-15.059-3.012-21.082-9.036s-9.035-12.047-9.035-21.082v-165.647h-18.070c-15.059 0-30.117-6.024-42.164-18.071s-18.070-27.106-18.070-42.165v-126.494c0-3.012 0-6.024 3.012-6.024 3.012-3.012 3.012-3.012 6.024-3.012h66.259v-48.188c0-9.036 3.012-15.059 9.035-21.082s12.047-9.036 21.082-9.036h289.13c9.036 0 15.059 3.012 21.082 9.036s9.036 12.047 9.036 21.082v48.188h66.259c3.012 0 6.024 0 6.024 3.012 3.012 3.012 3.012 3.012 3.012 6.024v126.494c0 15.059-6.024 30.118-18.070 42.165-6.024 12.047-21.082 18.071-36.141 18.071zM388.517 31.247h-271.059v78.306h271.059v-78.306zM388.517 230.024h-271.059v195.764h192.753v-51.2c0-9.036 3.012-15.059 9.036-21.083s12.047-9.035 21.082-9.035h48.188v-114.447zM457.788 193.882c-3.012-3.012-9.036-6.024-15.059-6.024s-9.036 3.012-15.059 6.024c-3.012 3.012-6.024 9.036-6.024 15.059s3.012 9.036 6.024 15.059c3.012 3.012 9.036 6.024 15.059 6.024s9.036-3.012 15.059-6.024c3.012-3.012 6.024-9.035 6.024-15.059s0-9.036-6.024-15.059z" />
<glyph unicode="&#xe61d;" glyph-name="share" d="M406.4 268.8c28.8 0 51.2 9.6 73.6 32 19.2 19.2 28.8 44.8 28.8 73.6s-9.6 54.4-28.8 73.6-44.8 32-73.6 32c-28.8 0-51.2-9.6-73.6-32-19.2-22.4-28.8-48-28.8-76.8 0-3.2 0-6.4 0-9.6l-115.2-60.8c-19.2 19.2-41.6 28.8-70.4 28.8s-51.2-9.6-73.6-32c-19.2-19.2-28.8-41.6-28.8-70.4s9.6-54.4 28.8-73.6c19.2-19.2 44.8-32 73.6-32 25.6 0 51.2 9.6 70.4 28.8l115.2-60.8c0-3.2 0-9.6 0-9.6 0-28.8 9.6-54.4 28.8-73.6s44.8-32 73.6-32c28.8 0 51.2 9.6 73.6 32 19.2 19.2 28.8 44.8 28.8 73.6s-9.6 54.4-28.8 73.6c-19.2 19.2-44.8 32-73.6 32-25.6 0-51.2-9.6-70.4-28.8l-115.2 57.6c0 3.2 0 9.6 0 9.6 0 3.2 0 6.4 0 9.6l115.2 60.8c19.2-16 44.8-25.6 70.4-25.6z" />
<glyph unicode="&#xe61e;" glyph-name="sidebar" d="M487.906 452.894c-9.036 6.024-21.082 12.047-33.13 12.047h-406.588c-12.047 0-24.094-6.023-33.13-15.059s-15.059-21.083-15.059-33.13v-373.459c0-12.047 6.024-24.094 15.059-33.13s21.083-15.059 33.13-15.059h406.588c12.047 0 24.094 6.024 33.13 15.059s15.059 21.082 15.059 36.141v370.447c0 12.047-6.024 24.094-15.059 36.141zM463.812 43.294c0-3.012 0-6.024-3.012-6.024-3.012-3.012-3.012-3.012-6.024-3.012h-183.718v352.377h192.753v-343.341z" />
<glyph unicode="&#xe61f;" glyph-name="strike_tool" d="M484.431 180.677h-51.2c-7.877 11.815-11.815 23.631-23.631 31.507-27.569 23.631-63.015 39.385-114.216 51.2-47.262 11.815-82.707 23.631-98.462 35.446s-23.631 23.631-23.631 47.261c0 19.692 7.877 35.446 23.631 43.323s35.446 15.754 59.077 15.754 47.262-3.938 74.831-11.815c27.569-11.815 47.262-19.692 59.077-35.446l47.262 63.015c-23.631 19.692-51.2 35.446-82.707 43.323-31.507 11.816-63.016 15.754-94.523 15.754-47.262 0-90.584-11.815-122.093-35.446-35.446-23.631-51.2-59.077-51.2-106.338s15.754-78.769 43.323-102.4c15.754-11.816 31.507-19.693 51.2-27.569s47.262-15.754 82.707-23.631c3.938 0 7.877-3.938 11.815-3.938h-236.308v-35.446h311.139c7.877-7.877 11.815-19.692 11.815-35.446 0-19.692-7.877-35.446-23.631-47.262s-35.446-15.754-63.015-15.754c-55.138 0-106.339 23.631-157.538 66.954l-51.2-63.015c59.077-55.139 129.969-78.769 204.8-78.769 51.2 0 94.523 11.815 129.969 39.385 31.507 27.569 47.262 63.015 47.262 106.339 0 11.815 0 19.692-3.938 31.507h35.446l3.938 31.507z" />
<glyph unicode="&#xe620;" glyph-name="text_tool" d="M471.040 480v0c-6.827 0-6.827 0-6.827 0h-13.654c-3.413-3.413-3.413-3.413-6.827-6.827 0 0-3.413-3.413-6.827-3.413s-3.413 0-6.827 0c0 0-3.413 0-6.827 0s-6.827 0-6.827 0h-102.4c-6.827 0-20.48 0-37.546 0-13.654 0-27.306 0-34.133 0-10.24 0-27.306 0-44.374 0-20.48 0-37.547 0-47.786 0-44.374 0-68.266 0-71.68 0l-17.067 10.24h-27.306v-129.707c0-6.827 6.827-10.24 17.067-17.067 6.827 0 10.24 6.827 13.653 17.067 3.413 13.654 10.24 27.307 13.653 37.547 3.413 13.653 6.826 23.893 10.24 27.306s13.653 6.827 27.306 10.24 23.894 3.413 30.72 3.413c34.133 0 54.613 0 54.613-3.413 0 0 0-3.413 3.413-3.413 0-3.413 0-3.413 0-6.827s0-6.827 0-10.24c0-3.413 0-6.826 0-10.24s0-3.413 0-6.827v-40.96c0-23.893 0-58.026 0-102.4 0-47.786 0-81.92 0-102.4 0-78.507-3.413-122.88-6.827-129.707-6.827-3.413-13.654-6.827-27.306-10.24s-23.893-6.827-34.133-10.24c-10.24-3.413-17.067-10.24-20.48-13.654v-3.413c0 0 0-6.827 0-17.067 10.24 0 30.72 0 51.2 3.413 23.893 3.413 40.96 3.413 51.2 3.413 13.654 0 37.546 0 71.68-3.413s58.026-3.413 75.094-3.413h10.24c0 3.413 0 6.827 0 10.24s0 6.827-3.413 17.067c-6.827 3.413-20.48 6.827-40.96 13.654-20.48 3.413-34.133 10.24-40.96 13.654-3.413 6.827-3.413 17.067-3.413 23.894s0 17.067 0 30.72 0 20.48 0 23.894c0 37.546 0 88.746 0 157.013s0 112.64 0 133.12c0 13.653 0 27.306 3.413 47.786 6.827 0 17.067 0 23.894 3.413 10.24 0 17.067 0 20.48 0 6.827 0 13.654 0 23.894 0s20.48 0 23.894 0c0 0 3.413 0 6.827 0s6.827 0 6.827 0h3.413c3.413 0 3.413 0 6.827-3.413l3.413-3.413c0 0 0-3.413 3.413-13.654 0-6.827 3.413-17.067 3.413-23.894 3.413-10.24 3.413-13.654 3.413-17.067 6.827-20.48 13.654-34.133 17.067-44.373 6.827 0 13.654 3.413 23.894 6.827 0 6.827 3.413 20.48 3.413 37.547 6.827 44.373 6.827 81.92 6.827 109.226z" />
<glyph unicode="&#xe621;" glyph-name="underline_tool" d="M256 70.4c51.2 0 89.6 16 121.6 48s48 76.8 48 134.4v227.2h-67.2v-227.2c0-38.4-9.6-67.2-28.8-86.4-19.2-22.4-44.8-32-73.6-32-32 0-57.6 9.6-73.6 32-22.4 22.4-32 51.2-32 89.6v224h-67.2v-227.2c0-57.6 16-102.4 48-134.4s73.6-48 124.8-48zM32-3.2v-28.8h441.6v28.8c0 0-441.6 0-441.6 0z" />
<glyph unicode="&#xe622;" glyph-name="zigzag_tool" d="M478.87 341.459c6.024 6.024 12.047 15.059 12.047 27.106 0 9.036-3.012 21.082-12.047 27.106l-72.283 72.282c-6.024 9.036-15.059 12.047-27.106 12.047s-21.082-3.012-27.106-12.047l-51.2-48.188 126.494-126.494 51.2 48.188zM409.6 272.188l-126.494 126.494-252.988-249.976v-126.494h126.494l252.988 249.976zM123.483 181.836l162.635 162.635c0 0 3.012 3.012 6.024 3.012s6.024-3.012 6.024-6.024 0-3.012-3.012-6.024l-162.636-162.636c0 0-3.012-3.012-6.023-3.012s-6.023 3.012-6.023 6.024 3.012 3.012 3.012 6.024zM108.424 61.365v39.153h-39.153v33.13l27.106 27.106 72.282-72.283-27.106-27.106c0 0-33.13 0-33.13 0zM361.412 1.13l-69.271 69.27h-42.165l-75.294-75.294h-144.565v-30.117h159.624l81.318 84.329 84.329-84.329h12.047l120.471 120.471-21.082 21.082-105.412-105.412z" />
<glyph unicode="&#xe623;" glyph-name="zoomin" d="M295.385 480h-63.016v-224.493h-212.677v-59.077h212.677v-228.431h63.016v228.431h212.677v59.077h-212.677z" />
<glyph unicode="&#xe624;" glyph-name="zoomout" d="M0 309.333h503.466v-136.534h-503.466v136.534z" />
<glyph unicode="&#xe625;" glyph-name="annotation_tools" horiz-adv-x="687" d="M353.215 220.76v-246.279h-6.481v246.279h-246.279v6.481h246.279v246.279h6.481v-246.279h246.279v-6.481h-246.279zM567.088 386.673l-51.848 52.496 20.739 20.091c2.592 3.889 6.481 5.185 11.018 5.185 5.185 0 8.426-1.296 11.018-3.888l29.813-29.813c2.592-3.889 5.185-7.777 5.185-11.018 0-5.185-2.592-9.073-5.185-11.017l-20.739-22.036zM455.615 273.904h-51.848v52.496l103.696 104.345 51.848-51.2-103.696-105.64zM419.969 320.567v-13.61h16.202v-16.202h13.61l11.017 11.018-29.813 29.813-11.017-11.018zM511.352 409.357c-1.296 0-1.296 0-2.592-1.296l-66.755-67.402c-1.296-1.296-1.296-1.296-1.296-2.592s1.296-2.593 2.592-2.593c1.296 0 2.592 1.296 2.592 1.296l66.754 67.403c1.296 1.296 1.296 1.296 1.296 2.592s-1.296 2.592-2.592 2.592zM282.572 406.764c-3.889-1.296-6.481-2.592-9.074-2.592-1.296 3.888-3.889 8.425-6.481 16.202 0 1.296 0 2.592-1.296 6.481 0 2.592-1.296 6.481-1.296 8.425-1.296 3.888-1.296 5.185-1.296 5.185l-1.296 1.296c-1.296 1.296-1.296 1.296-2.592 1.296h-1.296c0 0-1.296 0-2.593 0s-2.593 0-2.593 0-5.185 0-9.073 0c-3.888 0-6.481 0-9.073 0-1.296 0-3.888 0-7.777 0-2.593-1.296-6.481-1.296-9.073-1.296-1.296-7.777-1.296-12.314-1.296-17.498 0-7.777 0-23.98 0-48.608s0-43.423 0-57.033c0-1.296 0-3.888 0-8.425 0-5.185 0-8.425 0-11.018s0-6.481 1.296-8.425c2.593-1.296 7.777-3.889 15.554-5.185 7.777-2.592 12.962-3.888 15.554-5.185 1.296-3.889 1.296-5.185 1.296-6.481s0-2.593 0-3.889h-3.888c-6.481 0-15.554 0-27.869 1.296-12.962 1.296-21.387 1.296-26.572 1.296-3.888 0-10.369 0-18.795-1.296-7.777-1.296-15.554-1.296-18.795-1.296 0 3.889 0 6.481 0 6.481v1.296c1.296 1.296 3.888 3.888 7.777 5.185s7.777 2.592 12.962 3.889c5.185 1.296 7.777 2.592 10.369 3.888 1.296 2.593 2.593 18.795 2.593 47.311 0 7.777 0 20.091 0 37.59 0 16.202 0 28.517 0 37.59v13.61c0 1.296 0 1.296 0 2.593s0 2.592 0 3.888c0 1.296 0 2.593 0 3.889s0 1.296 0 2.593c-1.296 0-1.296 1.296-1.296 1.296 0 1.296-7.777 1.296-20.091 1.296-2.593 0-6.481 0-11.666-1.296s-9.073-2.593-10.369-3.889c-1.296-1.296-2.593-5.185-3.888-9.721-1.296-3.889-3.888-8.425-5.185-13.61-1.296-3.888-2.593-6.481-5.185-6.481-3.888 2.593-6.481 3.888-6.481 6.481v46.663h10.369l6.481-3.889c1.296 0 10.369 0 26.572 0 3.888 0 10.369 0 18.147 0 6.481 0 12.962 0 16.851 0 2.593 0 7.777 0 12.962 0 6.481 0 11.666 0 14.258 0h38.238c0 0 1.296 0 2.592 0s2.592 0 2.592 0 1.296 0 2.592 0 2.592 1.296 2.592 1.296c-0.648 1.296-0.648 1.296 0.648 2.593h5.185c0 0 0 0 1.296 0h1.296c0-9.721 0-23.979-2.592-40.183 0-5.833-1.296-11.017-1.296-13.61zM119.251 154.653c9.074 6.481 21.388 12.962 33.701 16.851 13.61 3.889 27.869 6.481 41.478 6.481 20.091 0 37.59-3.889 53.792-10.37s29.165-16.851 38.886-28.517c10.37-12.962 13.61-25.924 13.61-41.478 0-14.258-3.889-27.221-13.61-38.886-10.37-11.666-22.683-22.036-38.886-28.517s-34.998-10.37-53.792-10.37c-5.185 0-11.018 1.296-16.202 1.296-16.202-14.258-33.702-24.628-55.089-29.813-3.888-1.296-9.073-1.296-13.61-2.592-1.296 0-2.593 0-3.888 1.296s-2.593 2.592-2.593 3.889c0 0 0 0 0 1.296s0 1.296 0 1.296v1.296c1.296 1.296 1.296 1.296 1.296 1.296l1.296 1.296c1.296 1.296 1.296 1.296 1.296 1.296 1.296 0 1.296 1.296 3.888 3.889 2.593 1.296 3.888 3.889 5.185 3.889 1.296 1.296 2.593 2.592 3.888 5.185s2.593 5.185 3.888 6.481c0 1.296 1.296 3.889 2.593 6.481 0 2.592 1.296 5.185 2.593 9.074-11.017 7.777-21.388 16.851-29.165 27.221-7.777 11.666-11.017 23.332-11.017 34.998 0 10.37 3.888 20.739 9.073 31.109 4.537 9.074 12.314 18.147 21.388 24.628zM563.2 169.56v-88.79c0-22.683-6.481-40.831-18.795-53.144-12.962-12.962-27.869-18.795-48.608-18.795-20.091 0-36.942 6.481-49.904 18.795-12.962 12.962-18.795 30.461-18.795 53.144v90.086h26.572v-88.79c0-14.906 3.889-26.572 12.962-35.646 6.481-9.074 16.851-12.962 29.164-12.962 11.666 0 21.388 3.889 29.164 12.962 7.777 7.777 11.666 18.795 11.666 34.349v88.79h26.572zM581.995-19.038h-175.635v11.666h175.635v-11.666z" />
<glyph unicode="&#xe626;" glyph-name="cloud_ready" horiz-adv-x="687" d="M686.987 138.45c0-93.974-77.124-170.45-171.747-170.45h-364.881c-82.957 0-150.359 66.755-150.359 149.063 0 67.403 45.367 125.084 107.585 143.231 0 1.945 0 3.889 0 6.481 0 82.309 67.402 149.063 150.359 149.063 11.666 0 23.332-1.296 34.349-3.888 31.757 42.127 82.309 68.050 136.75 68.050 94.623 0 171.747-76.476 171.747-170.451 0-7.777-0.648-14.906-1.296-22.683 53.144-29.813 87.494-86.197 87.494-148.415zM548.942 261.59c5.833 14.906 9.721 30.461 9.721 47.311 0 70.643-57.681 128.324-128.972 128.324-53.144 0-99.159-32.405-118.603-78.421-15.555 9.074-33.702 14.258-53.144 14.258-58.977 0-107.585-47.959-107.585-106.936 0-15.554 3.24-30.461 9.721-43.423-3.24 0-6.481 0.648-9.721 0.648-59.626 0.648-107.585-47.312-107.585-106.288s47.96-106.936 107.585-106.936h364.881c71.291 0 128.972 57.033 128.972 127.676 0 59.625-40.831 108.881-95.271 123.787zM274.147 41.236l48.608 128.324h-64.81l175.636 170.45-44.719-127.676h64.81l-179.524-171.099z" />
<glyph unicode="&#xe627;" glyph-name="cross_device" horiz-adv-x="687" d="M599.494-17.094c-8.426-8.425-18.795-12.962-31.109-12.962h-300.719c9.721 0 17.498 3.24 24.628 10.37s4.536 14.906 4.536 24.628v34.998h272.203c2.592 0 4.537 0.648 5.833 2.592 1.944 1.945 2.592 3.889 2.592 5.833v385.62c0 2.592-0.648 4.536-2.592 5.833-1.944 1.945-3.889 2.593-5.833 2.593h-325.995c-2.593 0-4.536-0.648-5.833-2.593-1.945-1.944-2.593-3.888-2.593-5.833v-101.752h-34.998v101.752c0 12.314 4.536 22.035 12.962 31.109 8.425 8.425 18.795 12.962 31.109 12.962h325.347c12.314 0 22.035-4.536 31.109-12.962 8.425-8.425 12.962-18.795 12.962-31.109v-419.969c-0.648-12.314-4.537-22.683-13.61-31.109zM418.673 17.255c-3.24 3.24-7.777 5.185-12.314 5.185s-9.074-1.945-12.314-5.185c-3.24-3.24-5.185-7.777-5.185-12.314s1.945-9.074 5.185-12.314c3.24-3.24 7.777-5.185 12.314-5.185s9.074 1.945 12.314 5.185c3.24 3.24 5.185 7.777 5.185 12.314 0 5.185-1.945 9.074-5.185 12.314zM274.147 309.549c7.129-7.129 10.37-14.906 10.37-24.628v-279.979c0-9.721-3.24-17.498-10.37-24.628s-14.906-10.37-24.628-10.37h-139.99c-9.722 0-17.499 3.24-24.628 10.37s-10.37 14.906-10.37 24.628v280.628c0 9.721 3.24 17.498 10.37 24.628s14.906 10.37 24.628 10.37h139.99c9.074 0 17.498-3.889 24.628-11.018zM163.97-9.964c4.536-4.536 9.721-6.481 15.554-6.481s11.018 1.945 15.554 6.481c4.536 4.536 6.481 9.721 6.481 15.555s-1.945 11.017-6.481 15.555c-4.536 4.536-9.721 6.481-15.554 6.481s-11.018-1.945-15.554-6.481c-4.536-4.536-6.481-9.721-6.481-15.555s1.945-11.666 6.481-15.555zM103.048 247.332c-1.945-1.945-2.593-3.888-2.593-5.833v-192.486c0-2.592 0.648-4.536 2.593-5.833 1.945-1.945 3.888-2.592 5.833-2.592h139.99c2.593 0 4.536 0.648 5.833 2.592 1.945 1.945 2.592 3.889 2.592 5.833v192.486c0 2.593-0.648 4.536-2.593 5.833-1.945 1.945-3.888 2.593-5.833 2.593h-139.342c-2.593 0.648-4.537-0.648-6.481-2.593zM201.56 285.57h-44.071c-3.24 0-4.536-1.296-4.536-4.536s1.296-4.536 4.536-4.536h44.071c2.593 0 4.536 1.296 4.536 4.536-0.648 2.592-1.945 4.536-4.536 4.536z" />
<glyph unicode="&#xe628;" glyph-name="pdf_filetype" horiz-adv-x="439" d="M330.24 460.373c-5.12 5.12-12.8 10.24-21.334 13.654-9.387 4.267-17.92 5.974-25.6 5.974h-256c-7.68 0-13.653-2.56-19.627-7.68-5.12-5.974-7.68-11.946-7.68-19.626v-457.387c0-7.68 2.56-14.507 7.68-19.627 5.973-5.12 11.947-7.68 19.627-7.68h384c7.68 0 14.507 2.56 19.627 7.68s7.68 11.947 7.68 19.627v329.387c0 7.68-1.707 16.214-5.974 24.747-3.413 9.386-8.534 16.213-13.654 21.333l-88.746 89.6zM304.64 434.774l89.6-89.6c2.56-2.56 4.267-5.974 5.974-11.947h-107.52v107.52c5.12-1.707 9.387-3.413 11.947-5.974v0zM36.694 4.693v438.613h219.306v-118.613c0-7.68 2.56-14.506 7.68-19.626s11.947-7.68 19.627-7.68h118.613v-292.693h-365.226zM213.333 241.92c2.56 12.8 3.413 31.573 4.267 54.614v8.534c0 0.853 0 1.707 0 2.56 0 0 0.853 0.853 0.853 2.56 1.707 8.534 0.853 15.36-2.56 19.626-2.56 2.56-5.974 4.267-10.24 4.267v0h-5.974c-5.974 0-10.24-3.413-11.946-11.094-2.56-9.386-3.413-21.333-1.707-36.693 0.853-14.506 4.267-29.866 8.534-45.226-6.827-23.894-17.066-48.64-29.867-75.094-10.24-21.334-20.48-40.106-30.72-56.32 0 0 0 0.853-0.853 0.853-1.707 2.56-4.267 3.413-6.826 1.707-16.213-8.534-29.014-17.92-37.546-27.306s-14.507-18.774-16.213-26.454c-0.853-5.12 0-8.534 1.707-10.24 1.707-0.853 2.56-1.707 2.56-1.707l6.826-3.413c2.56-1.707 5.12-1.707 7.68-1.707 17.067 0 40.106 24.747 69.12 75.094 32.427 11.094 69.974 18.774 111.786 23.894 11.947-5.974 24.747-11.094 37.546-15.36 12.8-3.413 23.894-5.974 33.28-5.974 12.8 0 18.774 3.413 20.48 11.094v0c0 0 0 0 0.853 0.853 0 0 0 0 0 0.853 2.56 5.974 2.56 10.24-0.853 14.507-5.974 9.387-22.187 13.654-50.346 13.654-11.094 0-22.187-0.853-33.28-1.707-9.387 5.974-17.92 11.094-23.894 16.214-17.92 13.654-31.573 35.84-42.666 67.413v0zM104.96 78.080c6.826 8.534 15.36 16.214 24.747 23.894-16.213-25.6-29.013-40.96-39.254-45.226 2.56 5.12 7.68 12.8 14.507 21.334zM204.8 320.427c0 0 0 0 0 0 2.56-1.707 3.413-5.12 4.267-9.387 0 0 0 0 0-0.853 0 0 0 0 0-0.854 0 0 0 0 0-0.853-0.853-0.854-0.853-1.707-0.853-2.56-1.707-7.68-1.707-11.946-1.707-11.946-0.853-6.827-1.707-11.094-1.707-12.8-3.413 17.92-3.413 29.866 0 39.254v0zM181.76 154.026c10.24 21.334 18.774 40.106 23.893 56.32 9.387-20.48 22.186-37.546 36.694-50.346 0.853-0.853 2.56-2.56 4.267-4.267s3.413-2.56 3.413-2.56c-28.16-5.12-55.466-12.8-81.067-23.040 3.413 5.974 7.68 13.654 12.8 23.894v0zM354.134 134.4c-0.853 0-2.56 0-5.12 0-9.387 0-21.334 2.56-35.84 7.68 22.187 0 35.84-2.56 40.106-6.827 0.853-0.853 0.853-0.853 0.853-0.853v0z" />
<glyph unicode="&#xe629;" glyph-name="word_filetype" horiz-adv-x="439" d="M330.24 460.373c-5.12 5.12-12.8 10.24-21.334 13.654-9.387 4.267-17.92 5.974-25.6 5.974h-256c-7.68 0-13.653-2.56-19.627-7.68-5.12-5.974-7.68-11.946-7.68-19.626v-457.387c0-7.68 2.56-14.507 7.68-19.627 5.973-5.12 11.947-7.68 19.627-7.68h384c7.68 0 14.507 2.56 19.627 7.68s7.68 11.947 7.68 19.627v329.387c0 7.68-1.707 16.214-5.974 24.747-3.413 9.386-8.534 16.213-13.654 21.333l-88.746 89.6zM304.64 434.774l89.6-89.6c2.56-2.56 4.267-5.974 5.974-11.947h-107.52v107.52c5.12-1.707 9.387-3.413 11.947-5.974v0zM36.694 4.693v438.613h219.306v-118.613c0-7.68 2.56-14.506 7.68-19.626s11.947-7.68 19.627-7.68h118.613v-292.693h-365.226zM151.893 260.693v-30.72h-25.6l28.16-125.44c0.853-3.413 1.707-8.534 1.707-12.8l0.853-5.974h0.853l0.853 5.974c0 0.853 0.853 3.413 0.853 5.974 0.853 2.56 0.853 5.12 1.707 6.827l40.96 155.307h32.427l41.814-155.307c0-1.707 0.853-4.267 1.707-6.827 0.853-3.413 0.853-5.12 0.853-5.974l0.853-5.974h1.707l0.853 5.974c0 5.12 0.853 9.387 1.707 12.8l28.16 125.44h-25.6v30.72h85.334v-30.72h-19.627l-46.933-188.587h-45.226l-36.694 138.24c-0.853 1.707-0.853 4.267-1.707 7.68s-0.853 5.12-0.853 5.974l-0.853 6.827h-0.853c0-1.707 0-3.413-0.853-6.827-0.853-5.12-1.707-9.387-2.56-12.8l-36.694-139.094h-45.226l-46.934 188.587h-20.48v30.72h85.334z" />
<glyph unicode="&#xe62a;" glyph-name="excel_filetype" horiz-adv-x="439" d="M330.24 460.373c-5.12 5.12-12.8 10.24-21.334 13.654-9.387 4.267-17.92 5.974-25.6 5.974h-256c-7.68 0-13.653-2.56-19.627-7.68-5.12-5.974-7.68-11.946-7.68-19.626v-457.387c0-7.68 2.56-14.507 7.68-19.627 5.973-5.12 11.947-7.68 19.627-7.68h384c7.68 0 14.507 2.56 19.627 7.68s7.68 11.947 7.68 19.627v329.387c0 7.68-1.707 16.214-5.974 24.747-3.413 9.386-8.534 16.213-13.654 21.333l-88.746 89.6zM304.64 434.774l89.6-89.6c2.56-2.56 4.267-5.974 5.974-11.947h-107.52v107.52c5.12-1.707 9.387-3.413 11.947-5.974v0zM36.694 4.693v438.613h219.306v-118.613c0-7.68 2.56-14.506 7.68-19.626s11.947-7.68 19.627-7.68h118.613v-292.693h-365.226zM141.654 71.253l55.466 81.067-53.76 77.654h-19.626v30.72h82.773v-30.72h-21.334l29.867-45.226c1.707-2.56 3.413-4.267 5.12-6.827 0.853-0.853 0.853-1.707 1.707-2.56v0l0.853 0.853c0.853 0.853 1.707 1.707 2.56 4.267 0.853 1.707 1.707 3.413 2.56 5.12l29.013 45.226h-21.334v30.72h79.36v-30.72h-18.774l-55.466-80.214 54.613-77.654h20.48v-29.866h-82.774v29.866h21.334l-30.72 46.080c-0.853 0.853-0.853 1.707-1.707 2.56s-0.853 1.707-1.707 2.56c-0.853 0.853-0.853 1.707-1.707 2.56s-0.853 1.707-1.707 2.56h-0.853c0 0-0.853 0-0.853-0.853-0.853-0.853-0.853-1.707-2.56-4.267-0.853-1.707-1.707-3.413-2.56-5.12l-29.013-46.080h21.334v-29.866h-80.213v29.866h19.627z" />
<glyph unicode="&#xe62b;" glyph-name="powerpoint_filetype]" horiz-adv-x="439" d="M330.24 460.373c-5.12 5.12-12.8 10.24-21.334 13.654-9.387 4.267-17.92 5.974-25.6 5.974h-256c-7.68 0-13.653-2.56-19.627-7.68-5.12-5.974-7.68-11.946-7.68-19.626v-457.387c0-7.68 2.56-14.507 7.68-19.627 5.973-5.12 11.947-7.68 19.627-7.68h384c7.68 0 14.507 2.56 19.627 7.68s7.68 11.947 7.68 19.627v329.387c0 7.68-1.707 16.214-5.974 24.747-3.413 9.386-8.534 16.213-13.654 21.333l-88.746 89.6zM304.64 434.774l89.6-89.6c2.56-2.56 4.267-5.974 5.974-11.947h-107.52v107.52c5.12-1.707 9.387-3.413 11.947-5.974v0zM36.694 4.693v438.613h219.306v-118.613c0-7.68 2.56-14.506 7.68-19.626s11.947-7.68 19.627-7.68h118.613v-292.693h-365.226zM145.066 71.253v158.72h-26.453v30.72h104.96c15.36 0 28.16-1.707 37.546-5.12 11.947-5.12 21.334-13.654 28.16-24.746s10.24-24.746 10.24-40.107c0-15.36-3.413-29.866-11.094-41.813s-17.92-20.48-30.72-24.747c-7.68-2.56-19.626-4.267-34.133-4.267h-39.254v-47.786h26.453v-29.866h-92.16v29.866h26.453zM242.346 155.733c11.947 5.974 17.92 17.067 17.92 34.133 0 15.36-5.12 26.454-16.214 33.28-5.974 3.413-13.654 5.12-23.893 5.12h-34.133v-76.8h34.133c8.534 0 16.214 1.707 22.186 4.267v0z" />
<glyph unicode="&#xe62c;" glyph-name="plus" d="M512 208.941h-225.882v-240.941h-45.177v240.941h-240.941v45.177h240.941v225.882h45.177v-225.882h225.882v-45.177z" />
<glyph unicode="&#xe62d;" glyph-name="checked" d="M512 365.553l-45.176 45.177c-6.024 6.023-15.059 9.035-24.094 9.035s-18.070-3.012-24.094-9.035l-219.859-219.859-99.388 96.376c-6.023 9.036-12.047 12.047-21.082 12.047s-18.070-3.012-24.094-12.047l-45.176-45.176c-6.024-6.024-9.036-12.047-9.036-21.082s3.012-18.070 9.036-24.094l165.647-165.647c6.024-6.024 15.059-9.036 24.094-9.036s18.071 3.012 24.094 9.036l289.13 289.13c6.024 6.024 9.035 15.059 9.035 24.094 0 6.024-3.012 15.059-9.036 21.082v0z" />
<glyph unicode="&#xe62e;" glyph-name="chrome" d="M291.446 97.969l-72.862-126.031c-61.046 9.846-114.216 37.416-155.569 84.677s-63.016 104.369-63.016 167.385c0 45.293 11.816 86.646 33.477 126.031l104.369-181.169c9.846-21.661 27.569-39.385 47.261-53.169 21.661-13.784 45.292-21.661 70.892-21.661 11.815-1.969 23.631 0 35.446 3.938zM129.969 257.477l-74.831 126.031c23.631 29.538 53.169 53.169 88.615 70.892s72.862 25.6 112.246 25.6c45.293 0 88.615-11.815 128-33.477 39.385-23.631 68.923-53.169 92.554-92.554h-208.738c-3.938 0-7.877 1.969-11.815 1.969-29.538 0-57.108-9.846-80.738-27.569-23.631-19.692-39.385-43.323-45.292-70.892zM191.016 159.015c-17.723 17.723-27.569 39.385-27.569 64.985s9.846 47.262 27.569 64.985c17.723 17.723 39.385 27.569 64.984 27.569s47.262-9.846 64.985-27.569c17.723-17.723 27.569-39.385 27.569-64.985s-9.846-47.262-27.569-64.985c-17.723-17.723-39.385-27.569-64.985-27.569s-47.262 7.877-64.984 27.569zM348.554 318.523h145.723c11.815-29.538 17.723-61.046 17.723-94.523 0-70.892-25.6-129.969-74.831-179.2s-108.308-74.831-179.2-76.8l104.369 181.169c15.754 23.631 23.631 47.262 23.631 74.831 1.969 37.416-11.815 68.923-37.416 94.523z" />
<glyph unicode="&#xe62f;" glyph-name="star" d="M256 469.334l85.334-153.6 170.666-34.133-119.466-128 21.334-174.933-157.867 74.666-157.867-74.666 21.334 174.933-119.466 128 170.667 34.134 85.334 153.6z" />
<glyph unicode="&#xe630;" glyph-name="try" d="M380.272 231.457l-106.874 106.874c-2.486 2.486-4.971 2.486-7.457 2.486s-4.971 0-7.457-2.486c-2.486-2.486-2.486-4.971-2.486-7.457v-64.622h-116.815c-2.486 0-4.971 0-7.457-2.486s-4.971-4.971-4.971-7.457v-64.622c0-2.486 0-4.971 2.486-7.457 4.971-2.486 7.457-2.486 9.941-2.486h116.816v-64.621c0-2.486 0-4.971 2.486-7.457s4.971-2.486 7.457-2.486c2.486 0 4.971 0 7.457 2.486l106.874 106.874c2.486 2.486 2.486 4.971 2.486 7.457s0 4.971-2.486 7.457v0zM345.476 67.418c-27.34-17.398-57.165-24.855-91.961-24.855-32.31 0-62.136 7.457-91.961 24.855-27.34 17.398-49.709 37.281-67.107 67.107-17.398 27.34-24.855 57.165-24.855 91.961 4.971 29.825 12.427 62.136 29.825 89.476s37.282 49.709 67.107 67.107c24.855 14.913 57.165 22.369 89.476 22.369s62.136-7.457 91.961-24.855c27.34-17.398 49.709-37.281 67.107-67.107 17.398-27.34 24.855-57.165 24.855-91.961 0-32.31-7.457-62.136-24.855-91.961-19.884-24.855-39.767-44.738-69.592-62.136zM382.757 445.204c-37.281 22.369-79.534 34.796-126.757 34.796s-89.476-12.427-129.243-34.796c-39.767-22.369-69.592-52.194-91.961-91.961s-34.796-82.019-34.796-129.243c0-47.224 12.427-89.476 34.796-129.243s54.68-69.592 91.961-91.961c39.767-22.369 82.019-34.796 129.243-34.796s89.476 12.427 129.243 34.796c39.767 22.369 69.592 54.68 91.961 91.961 22.369 39.767 34.796 82.019 34.796 129.243s-12.427 89.476-34.796 129.243c-22.369 39.767-54.68 69.592-94.447 91.961z" />
<glyph unicode="&#xe631;" glyph-name="user" d="M497.778 87.466c0 11.378-2.844 22.755-5.689 36.978s-5.689 25.6-8.534 36.978c-2.844 11.378-8.534 22.755-14.222 31.289-5.689 11.378-14.222 19.911-19.911 25.6-8.534 8.534-17.067 14.222-28.445 17.066-11.378 5.689-25.6 5.689-36.978 5.689-2.844 0-5.689-2.845-14.222-8.534s-17.067-11.378-25.6-17.067c-8.534-5.689-22.755-11.378-36.978-17.067-19.911 2.844-36.978 0-51.2 0s-31.289 2.844-45.511 8.534c-14.222 5.689-28.445 11.378-36.978 17.066-11.378 2.845-17.066 8.534-25.6 14.222s-14.222 8.534-14.222 8.534c-14.222 0-25.6-2.845-36.978-5.689-11.378-5.689-22.755-11.378-28.445-17.066-8.534-8.534-14.222-17.067-19.911-25.6-5.689-11.378-11.378-22.755-14.222-31.289-2.845-11.378-5.689-22.755-8.534-36.978s-2.845-25.6-5.689-36.978c0-11.378 0-22.755 0-34.134 0-25.6 8.534-48.356 25.6-62.578 11.378-19.911 31.289-28.444 59.734-28.444h301.511c28.445 0 51.2 8.534 65.422 22.755 17.067 14.222 25.6 36.978 25.6 62.578 0 11.378 0 25.6 0 34.134zM256 480c-36.978 0-68.267-11.378-93.867-36.978s-36.978-56.889-36.978-91.022c0-34.134 14.222-65.422 39.822-91.022 22.756-25.6 54.044-36.978 91.022-36.978s68.267 11.378 93.866 36.978c25.6 25.6 39.822 54.045 39.822 91.022 0 34.134-14.222 65.422-39.822 91.022s-56.889 36.978-93.867 36.978z" />
<glyph unicode="&#xe632;" glyph-name="document_locked" horiz-adv-x="439" d="M430.57-24.102c-5.447-5.447-11.711-7.898-19.336-7.898h-383.728c-7.625 0-14.162 2.724-19.336 7.898-5.447 5.447-7.898 11.711-7.898 19.336v457.26c0 7.625 2.724 14.161 7.898 19.336 5.175 5.447 11.71 8.17 19.336 8.17h255.727c7.625 0 16.068-1.906 25.055-5.719 9.26-3.813 16.341-8.442 21.787-13.617l89.055-89.055c5.447-5.447 9.805-12.528 13.617-21.787s5.719-17.43 5.719-25.055v-329.26c0-7.625-2.724-14.161-7.898-19.608zM393.26 345.464l-89.327 89.327c-2.178 2.179-6.264 4.358-11.711 6.264v-107.302h107.302c-1.906 5.447-3.813 9.26-6.264 11.71zM401.974 297.26h-118.74c-7.625 0-14.161 2.724-19.336 7.898-5.447 5.447-7.898 11.71-7.898 19.336v119.013h-219.506v-438.74h365.481v292.493zM152.238 223.455h4.357v26.962c0 17.43 6.264 32.136 18.519 44.664s26.962 18.519 44.119 18.519c17.157 0 31.864-6.264 44.119-18.519 12.255-12.527 18.519-27.234 18.519-44.664v-26.962h4.358c3.813 0 6.808-1.361 9.532-4.085s3.813-5.719 3.813-9.532v-81.157c0-3.813-1.361-7.081-3.813-9.532-2.724-2.724-5.719-4.085-9.532-4.085h-133.992c-3.813 0-6.809 1.361-9.532 4.085s-3.813 5.719-3.813 9.532v81.43c0 3.813 1.362 7.081 3.813 9.532 2.724 2.451 5.719 3.813 9.532 3.813zM183.558 223.455h71.353v26.962c0 10.077-3.541 18.519-10.349 25.6-7.081 7.081-15.524 10.622-25.327 10.622s-18.247-3.541-25.327-10.622c-7.081-7.081-10.349-15.524-10.349-25.6v-26.962z" />
</font>
</defs>
</svg>
